<svg xmlns="http://www.w3.org/2000/svg" width="512" height="512" viewBox="0 0 512 512" fill="none">
    <defs>
      <linearGradient id="bg" x1="64" y1="32" x2="448" y2="480" gradientUnits="userSpaceOnUse">
        <stop stop-color="#EDF3FF"/>
        <stop offset="1" stop-color="#D7E6FF"/>
      </linearGradient>
      <radialGradient id="glow" cx="0" cy="0" r="1" gradientUnits="userSpaceOnUse" gradientTransform="translate(256 172) rotate(90) scale(180 180)">
        <stop stop-color="#A7C8FF" stop-opacity="0.72"/>
        <stop offset="1" stop-color="#A7C8FF" stop-opacity="0"/>
      </radialGradient>
      <linearGradient id="panel" x1="120" y1="72" x2="392" y2="448" gradientUnits="userSpaceOnUse">
        <stop stop-color="rgba(255,255,255,0.52)"/>
        <stop offset="1" stop-color="rgba(255,255,255,0.12)"/>
      </linearGradient>
      <filter id="shadow" x="-20%" y="-20%" width="140%" height="140%">
        <feDropShadow dx="0" dy="18" stdDeviation="22" flood-color="#111827" flood-opacity="0.14"/>
      </filter>
    </defs>
    
    <rect width="512" height="512" rx="72" fill="url(#bg)"/>
    <circle cx="256" cy="172" r="150" fill="url(#glow)"/>
    <path d="M0 402C72 356 140 348 214 370C288 392 374 384 512 332V512H0V402Z" fill="#DCE9FF" opacity="0.9"/>
    <path d="M0 434C80 390 160 388 230 406C312 426 398 420 512 374V512H0V434Z" fill="#2563EB" opacity="0.12"/>
    <circle cx="116" cy="118" r="48" fill="#FFFFFF" opacity="0.24"/>
    <circle cx="402" cy="128" r="34" fill="#FFFFFF" opacity="0.18"/>
    <rect x="46" y="46" width="420" height="420" rx="58" fill="#FFFFFF" opacity="0.12" stroke="#FFFFFF" stroke-opacity="0.32"/>
    
        <g filter="url(#shadow)">
          
    <path d="M152 474C166 384 194 336 256 336C318 336 346 384 360 474H152Z" fill="#2B5FCF"/>
    <path d="M204 474C212 388 226 346 256 346C286 346 300 388 308 474H204Z" fill="#F7FAFF"/>
    <path d="M224 334H288L274 372H238L224 334Z" fill="#9BC2FF"/>
    <rect x="226" y="324" width="60" height="28" rx="14" fill="#D9A98C"/>
    
          
    <path d="M188 228C188 160 220 126 260 126C302 126 332 158 332 228V270C322 248 314 238 302 232C286 204 260 194 234 200C214 204 198 216 190 232L188 228Z" fill="#1E2338"/>
    
          
    <ellipse cx="256" cy="234" rx="78" ry="94" fill="#E6B498"/>
    <ellipse cx="190" cy="236" rx="12" ry="20" fill="#E6B498"/>
    <ellipse cx="322" cy="236" rx="12" ry="20" fill="#E6B498"/>
    <ellipse cx="220" cy="270" rx="18" ry="10" fill="#F3B6A5" opacity="0.28"/>
    <ellipse cx="292" cy="270" rx="18" ry="10" fill="#F3B6A5" opacity="0.28"/>
    <path d="M252 248C258 260 260 272 258 286" stroke="#A86B52" stroke-width="4" stroke-linecap="round"/>
    <path d="M234 306C246 314 266 314 278 306" stroke="#9F4D4F" stroke-width="5" stroke-linecap="round"/>
    <path d="M210 214C220 206 234 206 244 212" stroke="#2B1E1F" stroke-width="6" stroke-linecap="round"/>
    <path d="M268 212C278 206 292 206 302 214" stroke="#2B1E1F" stroke-width="6" stroke-linecap="round"/>
    <ellipse cx="224" cy="236" rx="15" ry="19" fill="#2B1E1F"/>
    <ellipse cx="288" cy="236" rx="15" ry="19" fill="#2B1E1F"/>
    <ellipse cx="229" cy="230" rx="5" ry="6" fill="#FFFFFF"/>
    <ellipse cx="293" cy="230" rx="5" ry="6" fill="#FFFFFF"/>
    
          
    <path d="M186 222C194 152 232 126 262 126C304 126 334 160 336 224C318 206 302 198 286 194C266 184 220 188 196 214L186 222Z" fill="#242B45"/>
    <path d="M216 134C196 154 188 174 188 206" stroke="#44507D" stroke-width="7" stroke-linecap="round"/>
    
          
    <path d="M173 236C180 194 206 170 246 160" stroke="#B7C3EA" stroke-width="12" stroke-linecap="round"/>
    <path d="M339 234C332 194 306 170 266 160" stroke="#B7C3EA" stroke-width="12" stroke-linecap="round"/>
    
        </g>
        </svg>